Coordinates
version=1
nRows=16
nColumns=36
inDegrees=yes

Units are S.I. units (second, meters, Newtons, ...)
If the header above contains a line with 'inDegrees', this indicates whether rotational values are in degrees (yes) or radians (no).

endheader
time	pelvis_tilt	pelvis_list	pelvis_rotation	pelvis_tx	pelvis_ty	pelvis_tz	hip_flexion_r	hip_adduction_r	hip_rotation_r	knee_angle_r	knee_angle_r_beta	ankle_angle_r	subtalar_angle_r	mtp_angle_r	hip_flexion_l	hip_adduction_l	hip_rotation_l	knee_angle_l	knee_angle_l_beta	ankle_angle_l	subtalar_angle_l	mtp_angle_l	lumbar_extension	lumbar_bending	lumbar_rotation	arm_flex_r	arm_add_r	arm_rot_r	elbow_flex_r	pro_sup_r	arm_flex_l	arm_add_l	arm_rot_l	elbow_flex_l	pro_sup_l
      1.96666670	    -11.07108861	      2.05760487	     -2.91126707	      0.75863394	      0.97405412	     -0.12783428	     18.38686564	      7.04875438	     -1.74084216	     20.27525708	      0.35386999	      7.37639441	      4.91504390	     -7.49999973	     44.58150124	     -5.10638026	     -0.04691851	     15.79968088	      0.27575645	     -8.42260039	      3.20394603	     -7.49999973	     -6.74697537	     -0.95110896	      2.35419391	     61.75135352	    -16.06202144	     55.87404563	    137.22909127	     86.15912314	     59.90753074	     -4.05284514	     67.04268483	    134.81072612	     90.04802528
      1.98333330	    -11.32776161	      2.18063279	     -3.03405638	      0.75879729	      0.97110913	     -0.12782298	     18.87379568	      7.00338747	     -1.82171937	     20.73521371	      0.36189775	      8.00642201	      4.67184857	     -7.49999975	     45.22215446	     -5.35458507	     -0.03802485	     16.40045711	      0.28624198	     -8.18587973	      2.98604376	     -7.49999975	     -5.97143764	     -0.99221436	      2.40401986	     61.59333501	    -15.15954385	     56.05097232	    137.32119846	     84.07473721	     59.74845990	     -3.85192181	     66.70462884	    134.90588773	     87.77067902
      2.00000000	    -11.38166949	      2.29273486	     -3.15462807	      0.75762670	      0.96833853	     -0.12795318	     19.21272828	      6.91256830	     -2.00529641	     21.27586395	      0.37133388	      8.85019064	      4.63208662	     -7.49999976	     45.71852085	     -5.56535944	      0.11479313	     16.97125842	      0.29620434	     -7.84514100	      2.62345963	     -7.49999976	     -5.99984240	     -0.85892257	      2.36284670	     62.40682544	    -15.01947665	     56.39908727	    137.21018302	     83.53026486	     60.44711867	     -3.79443462	     66.60256744	    135.34891039	     87.14053031
      2.01666670	    -11.40117137	      2.46328133	     -3.20458355	      0.75866096	      0.97479223	     -0.12712618	     19.11776906	      6.76534106	     -2.00282845	     21.16061031	      0.36932232	      9.34049661	      4.41920248	     -7.49999976	     45.70775536	     -5.59125858	     -0.03611095	     16.81907838	      0.29354829	     -7.86872734	      2.57082992	     -7.49999976	     -6.32328374	     -0.69019247	      2.76478681	     62.47139353	    -15.68226493	     56.66486061	    136.67786189	     83.65539605	     60.06501011	     -3.94922996	     67.01460302	    135.64388173	     87.29371750
      2.03333330	    -11.41896831	      2.60363730	     -3.24692451	      0.75777757	      0.97161833	     -0.12728746	     19.11905538	      6.65055491	     -1.92868976	     21.11898214	      0.36859577	      9.62986927	      4.24217479	     -7.49999977	     45.83074622	     -5.65952805	     -0.07012932	     16.75873607	      0.29249512	     -7.85670297	      2.46475541	     -7.49999977	     -6.65174687	     -0.57813978	      2.85587561	     62.93169090	    -16.09343418	     56.77168143	    136.20319303	     83.65049499	     60.33425657	     -4.05145637	     66.95317769	    135.72610845	     87.14092130
      2.05000000	    -11.36075081	      2.75562143	     -3.18860029	      0.75822930	      0.97211644	     -0.12713333	     18.97498724	      6.53335838	     -1.75798003	     20.97369403	      0.36606002	      9.98485714	      3.93311726	     -7.49999978	     45.76269611	     -5.61017433	      0.01494496	     16.71843052	      0.29179166	     -7.72217221	      2.37152102	     -7.49999978	     -6.90925528	     -0.56639133	      2.96049454	     63.26817825	    -16.30126413	     56.82233273	    135.87054898	     84.83189232	     60.46572003	     -4.08915583	     66.34185256	    135.62064994	     88.62057507
      2.06666670	    -11.52161957	      2.89052210	     -3.32052357	      0.75764835	      0.97162671	     -0.12682863	     19.12805438	      6.44352363	     -1.61032023	     20.94881987	      0.36562588	     10.13848971	      3.78016986	     -7.49999979	     45.85216702	     -5.67677433	     -0.01129370	     16.65511593	      0.29068661	     -7.71594335	      2.48946765	     -7.49999979	     -6.78071892	     -0.49603401	      3.00307777	     63.15044220	    -15.96581919	     56.91522966	    136.14223425	     84.44793371	     60.24521278	     -4.20765422	     66.07414160	    135.34734464	     88.15217591
      2.08333330	    -11.66318173	      3.05561786	     -3.33406829	      0.75801849	      0.96868763	     -0.12717683	     19.46604107	      6.31172778	     -1.53267118	     21.25986623	      0.37105466	     10.39398118	      3.54224071	     -7.49999979	     46.12286089	     -5.63637329	     -0.06273723	     16.90657018	      0.29507531	     -7.41873558	      2.61940473	     -7.49999979	     -6.64020655	     -0.56951265	      2.77393353	     63.26932835	    -15.23102495	     57.18116256	    137.02930470	     83.48890447	     59.98339296	     -4.43354573	     65.38999040	    135.11110442	     86.97744267
      2.10000000	    -11.51240887	      3.19594105	     -3.42353320	      0.75761005	      0.97185475	     -0.12665452	     19.56152478	      6.19438839	     -1.33689460	     21.66247853	      0.37808157	     10.57940963	      3.26711111	     -7.49999980	     46.04144147	     -5.62344440	     -0.17139256	     17.10806057	      0.29859199	     -7.07520618	      2.83878936	     -7.49999980	     -7.25368837	     -0.52658310	      2.59769552	     63.71990561	    -14.98183866	     58.07658181	    137.09435730	     82.95950336	     59.73722517	     -5.54589061	     64.26285927	    135.08507067	     86.64121070
      2.11666670	    -11.81419685	      3.20331447	     -3.49565159	      0.75308384	      0.96815679	     -0.13132939	     20.47555117	      6.13581940	     -1.50749759	     22.46875561	      0.39215376	     10.73365741	      3.16345030	     -7.49999980	     46.69653283	     -5.65546670	     -0.04969839	     17.58617641	      0.30693668	     -6.78649558	      2.95477804	     -7.49999980	     -7.60287190	     -0.37305920	      2.39843397	     64.32237133	    -14.97403397	     57.85837135	    137.43134640	     83.18037441	     60.31040313	     -6.48795434	     63.20731468	    134.72618129	     86.93158893
      2.13333330	    -12.21734565	      3.22547822	     -3.54412662	      0.75282587	      0.96736415	     -0.13107678	     21.44133879	      6.12856998	     -1.65711717	     23.16507885	      0.40430690	     10.94108593	      2.94725068	     -7.49999981	     47.36844658	     -5.69646431	     -0.02736458	     17.88870686	      0.31221683	     -6.68560413	      3.08158972	     -7.49999981	     -7.55050343	     -0.20362484	      2.51967397	     64.53117947	    -15.17079062	     57.49340619	    137.61556937	     81.93954273	     60.46636258	     -6.71964578	     62.73557779	    134.94184293	     85.70612568
      2.15000000	    -12.44212947	      3.20906946	     -3.45892082	      0.75331320	      0.96396256	     -0.13173409	     22.28789901	      6.05787010	     -2.12116494	     24.06025979	      0.41993075	     11.45225553	      3.16594170	     -7.49999983	     48.04254533	     -5.67506071	      0.22566756	     18.49514360	      0.32280115	     -6.22648821	      3.03813982	     -7.49999983	     -7.77698684	      0.19961241	      2.23959196	     65.23629237	    -15.00817606	     57.69614396	    137.60472029	     86.69015087	     60.33513023	     -7.18071110	     61.89778199	    135.36525662	     93.43438420
      2.16666670	    -12.65598204	      3.28832630	     -3.53569685	      0.75262092	      0.96336971	     -0.13162660	     22.98989243	      5.95139575	     -2.35856538	     24.82506910	      0.43327919	     12.00850036	      3.22504411	     -7.49999983	     48.44270028	     -5.67137017	      0.23861095	     18.80612604	      0.32822882	     -5.97158844	      3.00722853	     -7.49999983	     -7.78278424	      0.32714575	      2.94813809	     65.43000224	    -15.44438625	     58.19256740	    138.04386840	     86.27285636	     60.72721948	     -5.91809026	     63.10836340	    135.63221869	     93.02550997
      2.18333330	    -12.87831712	      3.27929238	     -3.57949473	      0.75373496	      0.95952780	     -0.13165067	     23.77791534	      5.96695653	     -2.56459916	     25.82154442	      0.45067097	     12.41988266	      2.96387649	     -7.49999983	     48.85082510	     -5.68909613	      0.26306751	     18.99233115	      0.33147871	     -5.82762234	      3.14063015	     -7.49999983	     -7.82267125	      0.56449600	      3.23208837	     65.50324794	    -15.59185005	     58.32046208	    138.23153319	     85.66976628	     60.48460688	     -5.15548011	     64.09706593	    135.83010027	     92.36987706
      2.20000000	    -13.18797596	      3.27704979	     -3.38202533	      0.75302528	      0.95546921	     -0.13161584	     24.87045878	      5.90268857	     -2.91125777	     27.12220402	      0.47337176	     13.22435927	      3.05834950	     -7.49999984	     49.58881349	     -5.60499572	      0.44750416	     19.46080828	      0.33965518	     -5.69044316	      3.04058353	     -7.49999984	     -7.79691894	      0.40122687	      3.97824132	     65.66930831	    -16.68723063	     57.28978240	    138.29527840	     84.66349788	     61.39863980	     -4.24922944	     65.87952852	    135.06971363	     91.84209568
      2.21666670	    -13.60201483	      3.23633751	     -3.31128296	      0.75357870	      0.95197060	     -0.13213842	     26.10654210	      5.94742185	     -3.07058746	     28.52617596	      0.49787569	     13.87675850	      2.73205992	     -7.49999985	     50.42551259	     -5.65527853	      0.53720750	     19.88135166	      0.34699505	     -5.50842206	      2.79356695	     -7.49999985	     -7.70476471	      0.48886405	      3.48178847	     66.03918260	    -16.35339843	     56.90671382	    137.91633937	     86.39635052	     61.34420471	     -5.35969818	     64.30392356	    134.41776678	     95.38860238
